<svg width="24" height="24" viewBox="0 0 24 24" fill="none" xmlns="http://www.w3.org/2000/svg">
<g clip-path="url(#clip0_7_36)">
<path d="M12 19C15.866 19 19 15.866 19 12C19 8.13401 15.866 5 12 5C8.13401 5 5 8.13401 5 12C5 15.866 8.13401 19 12 19Z" stroke="#CDD6F4" stroke-linecap="round" stroke-linejoin="round"/>
<path d="M15.5 12L9.5 15.5V8.5L15.5 12Z" stroke="#CDD6F4" stroke-linecap="round" stroke-linejoin="round"/>
<path d="M12 22.75C17.9371 22.75 22.75 17.9371 22.75 12C22.75 6.06294 17.9371 1.25 12 1.25C6.06294 1.25 1.25 6.06294 1.25 12C1.25 17.9371 6.06294 22.75 12 22.75Z" stroke="#CDD6F4" stroke-linecap="round" stroke-linejoin="round"/>
</g>
<defs>
<clipPath id="clip0_7_36">
<rect width="24" height="24" fill="white"/>
</clipPath>
</defs>
</svg>
