<svg width="24" height="24" viewBox="0 0 24 24" fill="none" xmlns="http://www.w3.org/2000/svg">
<path d="M18.828 14.982L19.7305 15.7335C21.2601 13.8417 22.0286 11.4471 21.8855 9.0185C21.5345 4.6075 18.377 1.25 12.664 1.25C5.34699 1.25 2.08899 6.7125 2.08899 12.175C2.08899 16.8865 5.49699 22.75 12.664 22.75C18.678 22.75 20.883 19.0415 20.883 19.0415L20.2815 18.1895C20.2815 18.1895 18.1265 21.2465 12.664 21.2465C7.20149 21.2465 4.79499 16.335 4.79499 12.1755C4.79499 7.364 7.25099 3.305 12.6635 3.305C18.878 3.305 20.281 7.515 20.331 9.4695C20.331 11.474 20.231 13.328 18.8275 14.982H18.828Z" stroke="#CDD6F4" stroke-linecap="round" stroke-linejoin="round"/>
<path d="M8.90495 17.8385C8.75846 17.7747 8.62629 17.6822 8.51627 17.5664C8.40625 17.4505 8.32065 17.3137 8.26454 17.1642C8.20843 17.0146 8.18296 16.8552 8.18964 16.6956C8.19633 16.536 8.23503 16.3794 8.30345 16.235L12.6635 6.362C12.7272 6.21545 12.8198 6.08321 12.9356 5.97315C13.0515 5.86309 13.1883 5.77746 13.338 5.72134C13.4876 5.66523 13.647 5.63978 13.8067 5.6465C13.9664 5.65323 14.1231 5.692 14.2675 5.7605C14.414 5.82424 14.5462 5.91681 14.6563 6.03269C14.7664 6.14857 14.852 6.28539 14.9081 6.43503C14.9642 6.58467 14.9897 6.74407 14.9829 6.90374C14.9762 7.06342 14.9375 7.22011 14.869 7.3645L10.509 17.2875C10.3634 17.5676 10.1157 17.7811 9.8171 17.8837C9.51853 17.9862 9.19194 17.9701 8.90495 17.8385V17.8385ZM13.616 17.6385C13.4694 17.5748 13.3372 17.4822 13.2271 17.3663C13.117 17.2504 13.0314 17.1136 12.9753 16.964C12.9192 16.8143 12.8937 16.6549 12.9005 16.4953C12.9072 16.3356 12.946 16.1789 13.0145 16.0345L15.2195 11.0225C15.2832 10.876 15.3758 10.7438 15.4917 10.6338C15.6076 10.5238 15.7445 10.4382 15.8941 10.3821C16.0437 10.3261 16.2031 10.3007 16.3628 10.3074C16.5224 10.3142 16.6791 10.353 16.8235 10.4215V10.4215C16.9699 10.4852 17.1021 10.5778 17.2121 10.6936C17.3222 10.8095 17.4078 10.9463 17.4639 11.0958C17.52 11.2454 17.5454 11.4047 17.5388 11.5644C17.5321 11.724 17.4934 11.8806 17.425 12.025L15.22 17.0365C15.0791 17.3218 14.8349 17.5428 14.5369 17.6545C14.239 17.7662 13.9097 17.7603 13.616 17.638V17.6385Z" stroke="#CDD6F4" stroke-linecap="round" stroke-linejoin="round"/>
</svg>
