<svg width="24" height="24" viewBox="0 0 24 24" fill="none" xmlns="http://www.w3.org/2000/svg">
<g clip-path="url(#clip0_7_26)">
<path d="M7.99646 10.0625L6.99646 12.7125L5.99646 10.0625" stroke="#CDD6F4" stroke-linecap="round" stroke-linejoin="round"/>
<path d="M18.0035 11.1075C18.0035 10.5552 17.5558 10.1075 17.0035 10.1075C16.4513 10.1075 16.0035 10.5552 16.0035 11.1075V11.7575C16.0035 12.3098 16.4513 12.7575 17.0035 12.7575C17.5558 12.7575 18.0035 12.3098 18.0035 11.7575V11.1075Z" stroke="#CDD6F4" stroke-linecap="round" stroke-linejoin="round"/>
<path d="M9.00344 9.18749C9.19674 9.18749 9.35344 9.03079 9.35344 8.83749C9.35344 8.64419 9.19674 8.48749 9.00344 8.48749C8.81014 8.48749 8.65344 8.64419 8.65344 8.83749C8.65344 9.03079 8.81014 9.18749 9.00344 9.18749Z" fill="#CDD6F4"/>
<path d="M9.00354 10.0625V12.7125M14.8725 12.208C14.7851 12.3613 14.6586 12.4887 14.506 12.5773C14.3534 12.666 14.18 12.7126 14.0035 12.7125V12.7125C13.7383 12.7125 13.484 12.6072 13.2964 12.4196C13.1089 12.2321 13.0035 11.9777 13.0035 11.7125V11.0625C13.0035 10.7973 13.1089 10.543 13.2964 10.3554C13.484 10.1679 13.7383 10.0625 14.0035 10.0625V10.0625C14.2688 10.0625 14.5231 10.1679 14.7106 10.3554C14.8982 10.543 15.0035 10.7973 15.0035 11.0625V11.3875H13.0035M12.0035 11.0625C12.0035 10.7973 11.8982 10.543 11.7106 10.3554C11.5231 10.1679 11.2688 10.0625 11.0035 10.0625C10.7383 10.0625 10.484 10.1679 10.2964 10.3554C10.1089 10.543 10.0035 10.7973 10.0035 11.0625V11.7125C10.0035 11.9777 10.1089 12.2321 10.2964 12.4196C10.484 12.6072 10.7383 12.7125 11.0035 12.7125C11.2688 12.7125 11.5231 12.6072 11.7106 12.4196C11.8982 12.2321 12.0035 11.9777 12.0035 11.7125M12.0035 12.7125V8.71252" stroke="#CDD6F4" stroke-linecap="round" stroke-linejoin="round"/>
<path d="M12 22.75C17.9371 22.75 22.75 17.9371 22.75 12C22.75 6.06294 17.9371 1.25 12 1.25C6.06294 1.25 1.25 6.06294 1.25 12C1.25 17.9371 6.06294 22.75 12 22.75Z" stroke="#CDD6F4" stroke-linecap="round" stroke-linejoin="round"/>
<path d="M16.14 14.703C16.6965 14.478 17.686 14.178 17.984 14.5395C18.306 14.93 17.899 15.778 17.524 16.4365" stroke="#CDD6F4" stroke-linecap="round" stroke-linejoin="round"/>
<path d="M5.89905 14.964C6.77855 15.6625 9.37605 16.7315 12.143 16.7315C13.9585 16.7743 15.74 16.2346 17.2265 15.1915" stroke="#CDD6F4" stroke-linecap="round" stroke-linejoin="round"/>
</g>
<defs>
<clipPath id="clip0_7_26">
<rect width="24" height="24" fill="white"/>
</clipPath>
</defs>
</svg>
