<svg width="24" height="24" viewBox="0 0 24 24" fill="none" xmlns="http://www.w3.org/2000/svg">
<path d="M9.14 3C9.13802 2.83781 9.168 2.67683 9.22824 2.52623C9.28848 2.37563 9.3778 2.23838 9.49109 2.1223C9.60438 2.00623 9.73942 1.91361 9.88851 1.84972C10.0376 1.78584 10.1978 1.75196 10.36 1.75C11.4368 1.75 12.5031 1.9621 13.498 2.37419C14.4929 2.78628 15.3968 3.39028 16.1583 4.15172C16.9197 4.91316 17.5237 5.81713 17.9358 6.812C18.3479 7.80687 18.56 8.87316 18.56 9.95C18.56 10.2762 18.4304 10.5891 18.1997 10.8197C17.9691 11.0504 17.6562 11.18 17.33 11.18C17.0038 11.18 16.6909 11.0504 16.4603 10.8197C16.2296 10.5891 16.1 10.2762 16.1 9.95C16.1 9.19884 15.952 8.45503 15.6646 7.76105C15.3771 7.06707 14.9558 6.4365 14.4247 5.90535C13.8935 5.3742 13.2629 4.95287 12.5689 4.66541C11.875 4.37795 11.1312 4.23 10.38 4.23C10.2178 4.23066 10.0571 4.19936 9.907 4.13791C9.75691 4.07645 9.6204 3.98603 9.50526 3.87182C9.39011 3.7576 9.29859 3.62182 9.23592 3.47223C9.17325 3.32265 9.14066 3.16218 9.14 3V3ZM14.86 21C14.86 21.3262 14.7304 21.6391 14.4997 21.8697C14.2691 22.1004 13.9562 22.23 13.63 22.23C11.4552 22.23 9.36952 21.3661 7.83172 19.8283C6.29393 18.2905 5.43 16.2048 5.43 14.03C5.43 13.7038 5.55959 13.3909 5.79026 13.1603C6.02093 12.9296 6.33378 12.8 6.66 12.8C6.98622 12.8 7.29907 12.9296 7.52974 13.1603C7.76041 13.3909 7.89 13.7038 7.89 14.03V14.03C7.88737 14.7828 8.03338 15.5288 8.31966 16.2251C8.60593 16.9214 9.02685 17.5543 9.55826 18.0876C10.0897 18.6209 10.7211 19.044 11.4164 19.3327C12.1117 19.6214 12.8572 19.77 13.61 19.77C13.773 19.768 13.9348 19.7983 14.0861 19.8592C14.2373 19.9201 14.375 20.0103 14.4912 20.1246C14.6074 20.239 14.6998 20.3752 14.7631 20.5254C14.8264 20.6757 14.8594 20.837 14.86 21V21ZM3 14.86C2.83781 14.862 2.67683 14.832 2.52623 14.7718C2.37563 14.7115 2.23838 14.6222 2.1223 14.5089C2.00623 14.3956 1.91361 14.2606 1.84972 14.1115C1.78584 13.9624 1.75196 13.8022 1.75 13.64C1.75 11.4652 2.61393 9.37952 4.15172 7.84172C5.68952 6.30393 7.77522 5.44 9.95 5.44C10.2762 5.44 10.5891 5.56959 10.8197 5.80026C11.0504 6.03093 11.18 6.34378 11.18 6.67C11.18 6.99622 11.0504 7.30907 10.8197 7.53974C10.5891 7.77041 10.2762 7.9 9.95 7.9V7.9C8.43296 7.9 6.97806 8.50264 5.90535 9.57535C4.83264 10.6481 4.23 12.103 4.23 13.62C4.23066 13.7822 4.19936 13.9429 4.13791 14.093C4.07645 14.2431 3.98603 14.3796 3.87182 14.4947C3.7576 14.6099 3.62182 14.7014 3.47223 14.7641C3.32265 14.8268 3.16218 14.8593 3 14.86V14.86ZM21 9.14C21.3262 9.14 21.6391 9.26959 21.8697 9.50026C22.1004 9.73093 22.23 10.0438 22.23 10.37C22.23 11.4468 22.0179 12.5131 21.6058 13.508C21.1937 14.5029 20.5897 15.4068 19.8283 16.1683C19.0668 16.9297 18.1629 17.5337 17.168 17.9458C16.1731 18.3579 15.1068 18.57 14.03 18.57C13.7038 18.57 13.3909 18.4404 13.1603 18.2097C12.9296 17.9791 12.8 17.6662 12.8 17.34C12.8 17.0138 12.9296 16.7009 13.1603 16.4703C13.3909 16.2396 13.7038 16.11 14.03 16.11C14.7828 16.1126 15.5288 15.9666 16.2251 15.6803C16.9214 15.3941 17.5543 14.9732 18.0876 14.4417C18.6209 13.9103 19.044 13.2789 19.3327 12.5836C19.6214 11.8883 19.77 11.1428 19.77 10.39C19.768 10.227 19.7983 10.0652 19.8592 9.91393C19.9201 9.76269 20.0103 9.62499 20.1246 9.50878C20.239 9.39258 20.3752 9.30016 20.5254 9.23687C20.6757 9.17357 20.837 9.14065 21 9.14V9.14Z" stroke="#CDD6F4" stroke-linecap="round" stroke-linejoin="round"/>
</svg>
