<svg width="24" height="24" viewBox="0 0 24 24" fill="none" xmlns="http://www.w3.org/2000/svg">
<path d="M5 21C4.45 21 3.979 20.8043 3.587 20.413C3.19567 20.021 3 19.55 3 19V5C3 4.45 3.19567 3.979 3.587 3.587C3.979 3.19567 4.45 3 5 3H19C19.55 3 20.021 3.19567 20.413 3.587C20.8043 3.979 21 4.45 21 5V19C21 19.55 20.8043 20.021 20.413 20.413C20.021 20.8043 19.55 21 19 21H5ZM5 19H8.25V14.5H8C7.71667 14.5 7.479 14.404 7.287 14.212C7.09567 14.0207 7 13.7833 7 13.5V5H5V19ZM15.75 19H19V5H17V13.5C17 13.7833 16.904 14.0207 16.712 14.212C16.5207 14.404 16.2833 14.5 16 14.5H15.75V19ZM9.75 19H14.25V14.5H14C13.7167 14.5 13.4793 14.404 13.288 14.212C13.096 14.0207 13 13.7833 13 13.5V5H11V13.5C11 13.7833 10.9043 14.0207 10.713 14.212C10.521 14.404 10.2833 14.5 10 14.5H9.75V19Z" fill="#CDD6F4"/>
</svg>
