<svg width="24" height="24" viewBox="0 0 24 24" fill="none" xmlns="http://www.w3.org/2000/svg">
<path d="M7 21C6.71667 21 6.479 20.904 6.287 20.712C6.09567 20.5207 6 20.2833 6 20C6 19.7167 6.09567 19.4793 6.287 19.288C6.479 19.096 6.71667 19 7 19H11V14L3.35 5.4C3.25 5.28333 3.16667 5.13733 3.1 4.962C3.03333 4.78733 3 4.61667 3 4.45C3 4.05 3.14167 3.70833 3.425 3.425C3.70833 3.14167 4.05 3 4.45 3H19.55C19.95 3 20.2917 3.14167 20.575 3.425C20.8583 3.70833 21 4.05833 21 4.475C21 4.625 20.9667 4.78733 20.9 4.962C20.8333 5.13733 20.75 5.28333 20.65 5.4L13 14V19H17C17.2833 19 17.5207 19.096 17.712 19.288C17.904 19.4793 18 19.7167 18 20C18 20.2833 17.904 20.5207 17.712 20.712C17.5207 20.904 17.2833 21 17 21H7ZM7.45 7H16.55L18.35 5H5.65L7.45 7ZM12 12.1L14.775 9H9.225L12 12.1Z" fill="#CDD6F4"/>
</svg>
