<svg width="24" height="24" viewBox="0 0 24 24" fill="none" xmlns="http://www.w3.org/2000/svg">
<g clip-path="url(#clip0_6_113)">
<path d="M2.122 0.000995468C2.05894 -0.00461216 1.99546 0.00509778 1.93696 0.029299C1.87846 0.0535002 1.82667 0.0914763 1.786 0.139995C0.448004 1.725 0.0340036 6.02 0.724004 8.172C0.957376 8.88385 1.01097 9.6424 0.880004 10.38C0.747004 11.11 0.611004 11.992 0.611004 12.602C0.611004 18.895 5.712 24 12.001 24C18.291 24 23.389 18.898 23.389 12.601C23.389 11.988 23.256 11.108 23.119 10.379C22.9885 9.64164 23.0425 8.88346 23.276 8.172C23.966 6.022 23.552 1.725 22.214 0.139995C22.1725 0.0921806 22.1205 0.0547479 22.0619 0.0306998C22.0034 0.00665164 21.94 -0.00334256 21.8769 0.0015188C21.8138 0.00638016 21.7527 0.0259618 21.6986 0.058693C21.6444 0.0914242 21.5987 0.136394 21.565 0.189995L19.916 2.78C19.7195 3.02953 19.4366 3.19625 19.1231 3.24717C18.8096 3.2981 18.4884 3.22952 18.223 3.055C16.3739 1.84353 14.2106 1.19974 12 1.203C9.703 1.203 7.565 1.885 5.777 3.055C5.51139 3.22895 5.19024 3.2971 4.87687 3.24601C4.56349 3.19492 4.28062 3.02831 4.084 2.779L2.434 0.189995C2.40011 0.13655 2.35431 0.0916752 2.30018 0.0588858C2.24605 0.0260964 2.18507 0.00628242 2.122 0.000995468V0.000995468ZM12 3.805C14.3387 3.80896 16.5804 4.74003 18.2337 6.39411C19.887 8.04819 20.8171 10.2903 20.82 12.629C20.816 17.493 16.861 21.452 12 21.452C7.139 21.452 3.184 17.493 3.184 12.628C3.1853 10.9573 3.66023 9.32117 4.55371 7.90945C5.44719 6.49772 6.7226 5.36823 8.232 4.652C9.40902 4.0919 10.6965 3.80249 12 3.805V3.805ZM9.566 8.732C9.52158 8.73217 9.47798 8.74398 9.43955 8.76627C9.40113 8.78855 9.36921 8.82052 9.347 8.859C9.32488 8.89796 9.3135 8.9421 9.31402 8.9869C9.31455 9.0317 9.32697 9.07556 9.35 9.114L11.198 12.225L8.716 16.012C8.6912 16.0504 8.6771 16.0948 8.67516 16.1405C8.67323 16.1862 8.68353 16.2316 8.705 16.272C8.72639 16.3124 8.75834 16.3461 8.79745 16.3697C8.83655 16.3933 8.88133 16.4059 8.927 16.406H10.786C10.8283 16.4056 10.8698 16.3948 10.907 16.3746C10.9441 16.3544 10.9757 16.3253 10.999 16.29L12.34 14.192L13.542 16.278C13.5639 16.317 13.5959 16.3494 13.6346 16.372C13.6733 16.3945 13.7173 16.4062 13.762 16.406H15.594C15.6387 16.4065 15.6826 16.3948 15.7212 16.3723C15.7598 16.3497 15.7915 16.3171 15.813 16.278C15.8386 16.2406 15.8527 16.1966 15.8538 16.1514C15.8549 16.1061 15.8428 16.0615 15.819 16.023L13.566 12.115L11.633 8.856C11.6106 8.81773 11.5784 8.78609 11.5397 8.76431C11.5011 8.74253 11.4574 8.73138 11.413 8.732H9.566Z" fill="#CDD6F4"/>
</g>
<defs>
<clipPath id="clip0_6_113">
<rect width="24" height="24" fill="white"/>
</clipPath>
</defs>
</svg>
