<svg width="24" height="24" viewBox="0 0 24 24" fill="none" xmlns="http://www.w3.org/2000/svg">
<path d="M4.53 17.05L10.68 5.33H10.66C11.04 4.59 11.94 4.31 12.67 4.7C12.93 4.84 13.15 5.06 13.29 5.32L14.35 7.33" stroke="#CDD6F4" stroke-width="2" stroke-linecap="round" stroke-linejoin="round"/>
<path d="M15.47 6.45C16.05 5.86 17 5.86 17.58 6.44C17.8 6.66 17.94 6.94 17.99 7.25L19.49 16.36C19.59 16.98 19.29 17.6 18.73 17.9L12.66 20.8C12.2 21.05 11.65 21.06 11.2 20.8L5.18 17.88C4.63 17.57 4.33 16.96 4.43 16.34L6.39 4.3C6.51 3.48 7.28 2.92 8.09 3.05C8.55 3.12 8.96 3.41 9.18 3.82L10.42 5.58M4.57 17.18L15.5 6.5" stroke="#CDD6F4" stroke-width="2" stroke-linecap="round" stroke-linejoin="round"/>
</svg>
